#!OML:ASF H:\IndianDance\Patient Classification 1\Patient 1\Session 1\dancer.ASF
:FULLY-SPECIFIED
:DEGREES
1572
root -7.70933 15.4068 -7.44008 -172.154 -2.42551 -181.458
lowerback 6.67791 2.6045 -0.424835
upperback -5.70599 3.27916 -0.103754
thorax -9.83366 1.54105 -0.354436
lowerneck -17.6493 -3.35684 -4.83837
upperneck 19.9888 -5.01563 5.63699
head 9.49327 -2.22436 2.05847
rclavicle 2.65874e-014 1.35174e-014
rhumerus -4.30664 -32.1965 -48.9408
rradius 57.7149
rwrist -84.4083
rhand -26.7132 -18.04
rfingers 7.12502
rthumb -0.143055 -48.0197
lclavicle 2.65874e-014 1.35174e-014
lhumerus 21.8953 54.9319 48.61
lradius 25.0733
lwrist 47.9914
lhand -2.57601 -326.279
lfingers 7.12502
lthumb 23.1208 -297.647
rfemur -40.4711 -19.7 22.9816
rtibia 61.1725
rfoot -5.01846 0.0591257
rtoes -18.3021
lfemur -20.6927 15.8993 -7.97527
ltibia 46.7188
lfoot -1.32507 0.7153
ltoes -23.6927
1573
root -7.83817 15.3621 -7.37262 -171.917 -1.21578 -181.839
lowerback 6.30954 2.85498 -0.809458
upperback -5.78802 3.54977 -0.241905
thorax -9.72224 1.68864 -0.3104
lowerneck -17.6424 -3.28071 -4.7365
upperneck 20.1363 -4.95689 5.62114
head 9.53695 -2.19559 2.0442
rclavicle 4.46893e-014 1.27222e-014
rhumerus -1.94954 -30.9884 -50.209
rradius 55.283
rwrist -82.3299
rhand -26.9692 -19.3964
rfingers 7.12502
rthumb -0.390301 -49.3757
lclavicle 4.46893e-014 1.27222e-014
lhumerus 23.7217 54.8748 50.3878
lradius 23.8435
lwrist 46.4295
lhand -3.51932 -324.625
lfingers 7.12502
lthumb 22.2155 -295.882
rfemur -42.1044 -19.6548 22.7474
rtibia 62.6006
rfoot -4.47596 -1.03776
rtoes -16.2703
lfemur -19.857 15.7654 -8.57641
ltibia 45.5029
lfoot -2.71848 0.101587
ltoes -26.4124
1574
root -7.96341 15.3117 -7.30515 -171.654 -0.0100575 -182.229
lowerback 5.9278 3.08966 -1.20159
upperback -5.89343 3.79698 -0.390668
thorax -9.63114 1.82337 -0.267752
lowerneck -17.5774 -3.20991 -4.63953
upperneck 20.2293 -4.90415 5.6114
head 9.55155 -2.17042 2.03239
rclavicle -8.56016e-015 3.18055e-015
rhumerus 0.21697 -29.4604 -51.3701
rradius 53.1841
rwrist -80.4255
rhand -27.275 -20.8238
rfingers 7.12502
rthumb -0.685697 -50.8025
lclavicle -8.56016e-015 3.18055e-015
lhumerus 25.2821 54.5973 51.8868
lradius 22.803
lwrist 44.9447
lhand -4.47127 -322.866
lfingers 7.12502
lthumb 21.3013 -294.017
rfemur -43.779 -19.583 22.6098
rtibia 64.0722
rfoot -4.10879 -2.26672
rtoes -13.8976
lfemur -19.4059 16.233 -9.40777
ltibia 44.7801
lfoot -4.17927 -0.0714869
ltoes -28.3566
1575
root -8.08404 15.2593 -7.23722 -171.397 1.15341 -182.625
lowerback 5.58021 2.98843 -1.62324
upperback -6.01568 4.07476 -0.51968
thorax -9.58133 2.17734 -0.226228
lowerneck -17.476 -3.15131 -4.55982
upperneck 20.2887 -4.86501 5.61118
head 9.54926 -2.15262 2.02507
rclavicle -7.57867e-016 3.97569e-016
rhumerus 2.17285 -27.6046 -52.4101
rradius 51.4456
rwrist -78.7966
rhand -27.6314 -22.2719
rfingers 7.12502
rthumb -1.02996 -52.2491
lclavicle -7.57867e-016 3.97569e-016
lhumerus 26.3857 53.9485 52.9175
lradius 22.0128
lwrist 43.7418
lhand -5.47922 -320.997
lfingers 7.12502
lthumb 20.3329 -292.041
rfemur -45.386 -19.4866 22.5481
rtibia 65.5136
rfoot -4.02203 -3.42961
rtoes -11.3917
lfemur -19.3335 17.2579 -10.4275
ltibia 44.5557
lfoot -5.58752 0.153503
ltoes -29.2279
1576
root -8.19955 15.2074 -7.16855 -171.177 2.24093 -183.023
lowerback 5.30998 3.12517 -2.00857
upperback -6.14541 4.23316 -0.675942
thorax -9.58434 2.2842 -0.190259
lowerneck -17.3551 -3.1073 -4.4858
upperneck 20.3324 -4.84673 5.61852
head 9.53939 -2.14478 2.0185
rclavicle 3.21037e-014 1.19271e-014
rhumerus 3.89041 -25.372 -53.304
rradius 50.0843
rwrist -77.4711
rhand -28.0762 -23.6025
rfingers 7.12502
rthumb -1.45951 -53.5772
lclavicle 3.21037e-014 1.19271e-014
lhumerus 26.8518 52.7767 53.275
lradius 21.5112
lwrist 42.9951
lhand -6.51868 -319.061
lfingers 7.12502
lthumb 19.3337 -290.002
rfemur -46.8331 -19.379 22.5379
rtibia 66.8747
rfoot -4.27864 -4.33815
rtoes -9.08248
lfemur -19.5803 18.7196 -11.5878
ltibia 44.7518
lfoot -6.86173 0.664928
ltoes -29.0528
